# xmcd
#
# Track frame offsets:
#	150
#	21147
#	40657
#	58378
#	83194
#	103787
#	123769
#	144095
#	162878
#	182958
#	206433
#	224213
#
# Disc length: 3293 seconds
#
# Revision: 1
# Processed by: cddbd v1.5.2PL0 Copyright (c) Steve Scherf et al.
# Submitted via: audiograbber 1.83.01
#
DISCID=aa0cdb0c
DTITLE=Various Artist - Merengue En El Carnaval De Miami 2001
DYEAR=2001
DGENRE=Merengue
TTITLE0=Jossie Esteban - Enterita
TTITLE1=Banda Gorda - Tocame La Sirena
TTITLE2=Grupomania - Dos Mujeres
TTITLE3=Kontrol - Merengue Party II
TTITLE4=Olga Tanon - Fuera de mi Vida
TTITLE5=Sin Fronterias - Que Bonito
TTITLE6=Banda X - Que Calor en Nueva York
TTITLE7=K-Libre - Dime Que Me Quieres
TTITLE8=Zona Roja - La Candela
TTITLE9=Mully and Jocelyn Y Los Vecinos - Calimin Y Chulumen
TTITLE10=Banda Chula - Mambo Y Coro
TTITLE11=Los Sabrosos Del Merengue - La Morena
EXTD=YEAR: 2001
EXTT0=
EXTT1=
EXTT2=
EXTT3=
EXTT4=
EXTT5=
EXTT6=
EXTT7=
EXTT8=
EXTT9=
EXTT10=
EXTT11=
PLAYORDER=
